<?xml version="1.0" standalone="no"?>
<!DOCTYPE svg PUBLIC "-//W3C//DTD SVG 20010904//EN"
 "http://www.w3.org/TR/2001/REC-SVG-20010904/DTD/svg10.dtd">
<svg version="1.0" xmlns="http://www.w3.org/2000/svg"
 width="968.000000pt" height="968.000000pt" viewBox="0 0 968.000000 968.000000"
 preserveAspectRatio="xMidYMid meet">
<metadata>
Created by potrace 1.11, written by Peter Selinger 2001-2013
</metadata>
<g transform="translate(0.000000,968.000000) scale(0.100000,-0.100000)"
fill="#000000" stroke="none">
<path d="M4460 9669 c-463 -35 -956 -149 -1410 -326 -175 -68 -597 -281 -759
-383 -603 -378 -1099 -858 -1482 -1434 -426 -638 -673 -1297 -780 -2081 -27
-191 -37 -723 -20 -956 39 -510 144 -971 331 -1449 114 -290 347 -719 540
-992 601 -852 1476 -1497 2465 -1818 480 -155 963 -230 1490 -230 841 0 1609
197 2341 600 414 228 737 472 1089 825 386 385 673 783 909 1260 386 778 548
1574 496 2435 -40 663 -201 1274 -489 1856 -238 481 -519 879 -885 1252 -376
382 -772 675 -1239 916 -585 302 -1207 478 -1862 526 -163 12 -569 11 -735 -1z
m305 -1845 c44 -8 114 -19 155 -24 247 -31 325 -62 413 -162 27 -32 58 -58 67
-58 10 0 26 -12 36 -27 10 -16 52 -70 93 -121 119 -146 167 -215 181 -258 7
-21 19 -47 28 -57 14 -16 13 -20 -15 -50 -31 -34 -138 -165 -267 -331 -44 -55
-134 -166 -200 -246 -126 -151 -158 -191 -291 -360 -74 -95 -143 -181 -233
-290 -20 -24 -121 -153 -224 -285 -103 -132 -206 -262 -229 -290 -22 -27 -57
-73 -77 -100 -21 -28 -73 -95 -117 -149 -44 -54 -93 -117 -109 -139 -16 -23
-66 -87 -111 -142 -45 -55 -101 -127 -126 -160 -24 -32 -51 -67 -60 -76 -9 -9
-35 -41 -56 -70 -22 -30 -50 -63 -62 -73 -11 -11 -21 -25 -21 -31 0 -7 -7 -18
-15 -25 -8 -7 -12 -16 -9 -21 3 -5 -5 -14 -18 -20 -13 -5 -45 -40 -73 -77 -27
-37 -116 -147 -197 -244 -82 -97 -148 -182 -148 -190 0 -7 -13 -27 -30 -45
-16 -17 -64 -76 -105 -130 -133 -171 -220 -285 -235 -307 -8 -11 -48 -61 -88
-111 -152 -186 -182 -225 -320 -408 -78 -103 -142 -192 -142 -197 0 -6 -4 -10
-9 -10 -14 0 -96 -112 -131 -180 -19 -36 -49 -83 -68 -105 -18 -22 -32 -49
-30 -60 1 -11 -1 -26 -5 -32 -11 -17 -38 -17 -31 0 6 17 -13 67 -55 145 -40
73 -180 221 -296 312 -44 35 -93 76 -110 91 -16 15 -102 63 -190 108 -143 72
-164 80 -195 73 -22 -5 -35 -14 -35 -24 0 -21 80 -86 152 -123 32 -16 69 -37
83 -46 14 -9 43 -22 65 -29 47 -15 148 -85 188 -129 15 -17 33 -31 41 -31 18
0 243 -234 263 -274 8 -17 27 -41 42 -54 l26 -22 -195 3 c-231 4 -256 11 -385
95 -93 61 -153 115 -217 192 -20 25 -47 59 -61 75 -49 60 -166 267 -178 315
-8 33 -4 41 78 150 47 63 97 127 110 142 13 15 36 40 51 56 15 16 32 36 37 45
9 14 68 85 153 186 20 24 44 54 52 67 20 30 154 203 182 235 13 14 34 40 48
59 43 58 74 95 87 103 7 4 13 12 13 17 0 18 95 156 131 190 37 36 159 198 311
414 35 49 115 154 179 235 63 80 168 216 231 301 180 240 266 349 333 425 79
89 185 233 185 251 0 8 35 55 78 106 42 51 93 113 112 138 19 25 40 52 47 60
7 8 46 60 87 115 42 55 79 105 83 110 5 6 44 57 88 115 44 58 115 149 157 203
43 54 78 102 78 107 0 5 6 15 13 22 7 7 29 36 48 63 56 82 157 213 252 328 18
21 44 59 58 85 14 26 40 62 57 81 18 18 29 37 26 42 -3 5 2 12 10 15 9 3 26
22 38 42 12 21 44 63 70 95 26 32 48 65 48 73 0 7 5 13 12 12 6 -2 20 14 30
35 10 20 23 37 28 37 6 0 10 5 10 11 0 15 60 106 122 185 48 62 48 62 86 53
20 -6 73 -17 117 -25z m1002 -763 c-6 -24 -159 -242 -165 -236 -2 2 8 19 22
38 14 19 26 41 26 50 0 10 4 17 9 17 14 0 91 112 91 132 0 10 5 18 11 18 6 0
9 -9 6 -19z m-2703 -266 c62 -8 101 -9 125 -3 21 6 64 7 101 3 36 -4 141 -9
234 -11 93 -2 170 -5 172 -7 2 -1 -14 -25 -36 -52 -94 -120 -188 -241 -300
-390 -145 -191 -136 -181 -152 -168 -7 6 -39 20 -70 31 -32 12 -66 26 -75 31
-52 26 -122 38 -137 24 -4 -4 -31 -13 -59 -19 -29 -6 -66 -15 -83 -19 l-31 -7
9 54 c5 29 10 81 12 115 3 40 11 75 25 98 12 20 21 44 21 54 0 16 6 35 39 116
4 11 17 41 29 66 11 26 24 63 27 82 7 34 8 35 33 25 15 -5 67 -16 116 -23z
m2510 -20 c-9 -14 -18 -25 -21 -25 -5 0 5 18 20 38 17 22 18 13 1 -13z m-50
-70 c-9 -14 -19 -24 -21 -21 -7 7 16 46 28 46 5 0 2 -11 -7 -25z m-87 -122
c-34 -47 -69 -89 -77 -91 -10 -3 -8 3 6 19 11 13 31 41 43 61 26 44 72 98 83
98 5 0 -20 -39 -55 -87z m38 -158 c61 -9 160 -25 220 -35 61 -10 148 -24 195
-30 47 -6 105 -15 130 -20 25 -5 79 -12 120 -15 41 -4 113 -14 160 -22 105
-19 193 -31 290 -38 155 -12 490 -71 840 -146 25 -6 72 -11 105 -13 50 -3 298
-49 645 -120 64 -14 200 -35 250 -40 9 -1 20 -5 25 -8 19 -11 238 -49 288 -49
9 0 17 -4 17 -8 0 -7 85 -20 143 -22 9 0 17 -4 17 -9 0 -5 10 -8 23 -7 12 1
77 -2 144 -7 l122 -8 31 -47 c52 -82 72 -182 74 -371 1 -148 -8 -342 -19 -395
-19 -92 -52 -209 -71 -254 -29 -64 -114 -182 -149 -205 -29 -19 -75 -21 -98
-3 -17 12 -111 266 -102 275 2 2 -5 27 -15 56 -23 60 -27 194 -8 275 8 35 8
55 1 62 -11 11 -9 19 28 174 26 113 71 211 99 218 12 3 24 15 27 26 3 12 9 21
14 21 5 0 14 10 19 23 6 12 15 30 22 39 19 27 1 34 -36 14 -52 -28 -141 -125
-171 -186 -15 -30 -33 -66 -40 -80 -31 -60 -65 -304 -66 -477 0 -110 4 -154
21 -218 28 -106 47 -155 73 -182 11 -13 19 -25 16 -27 -5 -5 -173 17 -333 43
-67 11 -150 23 -186 26 -36 3 -81 10 -100 15 -19 4 -55 11 -80 14 -121 15
-432 57 -490 66 -214 34 -360 54 -395 55 -22 0 -42 3 -45 7 -3 3 -28 9 -56 12
-28 3 -90 15 -139 26 -48 11 -106 22 -129 24 -44 4 -255 34 -296 42 -14 2
-115 18 -225 35 -223 34 -326 56 -400 87 -27 11 -88 35 -135 53 -47 18 -105
41 -130 52 -25 11 -88 35 -140 53 -52 18 -169 64 -260 102 -91 38 -221 88
-290 111 -69 24 -149 54 -178 67 -29 13 -84 29 -122 34 -37 5 -80 15 -94 21
l-25 12 52 69 c29 38 86 111 127 162 74 92 209 273 246 331 10 16 30 41 43 55
13 14 40 45 60 70 19 25 57 70 83 101 27 30 48 60 48 66 0 6 17 28 38 50 27
29 40 36 47 27 6 -7 60 -20 120 -29z m-2562 -238 c7 -18 69 -47 100 -47 13 0
36 -10 51 -21 15 -12 29 -19 32 -16 3 3 19 1 35 -5 29 -10 38 -31 19 -43 -5
-3 -67 -83 -139 -178 -71 -95 -159 -210 -195 -257 -36 -47 -112 -146 -168
-220 -56 -74 -104 -137 -108 -140 -6 -5 -68 -84 -137 -173 -18 -23 -31 -48
-28 -55 3 -7 -3 -16 -13 -19 -9 -3 -24 -12 -32 -19 -14 -12 -15 -5 -9 64 5 42
11 140 14 217 8 165 35 300 76 390 17 35 28 69 25 74 -17 26 166 282 228 321
18 10 45 31 59 44 15 14 43 29 62 35 19 5 49 21 66 35 34 29 54 33 62 13z
m1739 -734 c29 -16 82 -41 118 -57 36 -15 85 -39 110 -51 25 -13 95 -44 155
-69 61 -26 119 -51 130 -56 51 -23 135 -59 190 -80 33 -13 65 -26 70 -30 6 -4
27 -10 47 -14 35 -6 126 -44 208 -86 19 -9 113 -43 209 -75 96 -31 197 -67
225 -79 28 -13 89 -38 136 -56 138 -54 388 -159 490 -207 113 -53 196 -83 227
-83 13 0 45 -11 71 -24 26 -12 160 -67 297 -120 138 -54 286 -112 330 -131 98
-40 230 -86 268 -92 15 -3 27 -9 27 -14 0 -5 7 -9 15 -9 8 0 23 -4 33 -10 34
-19 174 -70 192 -70 10 0 31 -7 46 -15 16 -8 37 -15 47 -15 9 0 17 -4 17 -10
0 -5 18 -14 41 -20 22 -6 55 -20 72 -31 18 -10 42 -19 55 -19 12 0 22 -4 22
-10 0 -5 10 -10 23 -10 13 0 27 -3 31 -7 3 -4 14 -8 24 -9 34 -6 98 -22 129
-34 29 -10 35 -20 53 -80 21 -71 36 -144 44 -220 5 -55 -18 -245 -39 -320 -9
-30 -19 -69 -24 -85 -14 -55 -74 -164 -128 -235 -29 -38 -53 -72 -53 -76 0
-14 -123 -140 -208 -213 -74 -63 -97 -77 -117 -73 -33 6 -32 17 5 32 36 15 39
36 6 51 -30 14 -37 61 -35 236 0 67 -2 126 -5 131 -10 17 24 172 49 222 14 27
25 60 25 72 0 13 9 34 20 48 11 14 20 29 20 33 1 28 187 261 209 262 29 2 111
77 111 103 0 29 -64 3 -181 -75 -156 -102 -246 -249 -315 -516 -34 -134 -37
-151 -36 -292 0 -84 5 -163 12 -179 6 -16 8 -31 6 -33 -3 -3 -60 26 -128 64
-272 154 -501 272 -658 340 -51 22 -95 41 -132 57 -18 7 -64 27 -103 44 -85
38 -222 88 -415 152 -163 55 -206 70 -235 81 -88 33 -165 58 -165 53 0 -4 -6
-2 -12 3 -14 10 -82 36 -138 51 -91 26 -484 169 -815 297 -104 40 -316 120
-470 179 -154 58 -338 130 -410 161 -71 31 -184 77 -250 101 -66 25 -154 60
-195 79 -41 18 -102 38 -135 45 -33 7 -69 18 -80 25 -12 7 -28 14 -37 16 -12
3 8 34 76 120 50 64 120 148 155 188 93 105 158 190 180 236 10 22 41 65 68
95 75 83 287 350 324 408 12 17 27 32 34 32 7 0 37 -12 67 -27z m-1892 -2223
c-6 -11 -16 -20 -22 -20 -6 0 -3 9 7 20 10 11 20 20 22 20 2 0 -1 -9 -7 -20z"/>
<path d="M4221 5849 c-46 -85 -89 -161 -97 -170 -8 -8 -14 -18 -14 -21 0 -23
-283 -481 -385 -623 -36 -49 -91 -126 -123 -170 -31 -44 -76 -105 -100 -135
-23 -30 -50 -65 -60 -78 -9 -13 -48 -58 -86 -100 -38 -42 -80 -93 -95 -112
-52 -71 -128 -157 -242 -275 -146 -151 -259 -283 -259 -303 0 -8 -9 -29 -20
-47 -18 -29 -19 -34 -4 -45 13 -12 25 -4 82 52 37 36 85 80 106 99 44 38 141
138 208 213 23 27 67 75 97 105 29 31 81 94 114 141 34 47 78 103 98 126 20
23 63 77 95 120 32 43 60 81 63 84 3 3 28 32 56 65 27 33 56 66 63 74 23 24
62 90 62 104 0 8 9 25 21 38 49 56 218 332 309 504 28 55 58 111 65 125 8 14
21 41 29 60 9 19 16 31 16 25 1 -20 62 111 75 160 7 28 18 62 23 76 8 20 7 32
-2 44 -11 16 -23 -1 -95 -136z"/>
<path d="M3596 5254 c-31 -41 -56 -78 -56 -81 0 -10 -68 -109 -85 -123 -17
-14 -88 -106 -117 -151 -17 -26 -15 -61 4 -86 7 -9 18 -8 45 3 44 19 90 67
113 120 10 23 34 58 54 77 20 20 36 43 36 51 0 8 5 18 11 21 12 8 75 139 84
177 7 26 -8 68 -24 68 -5 0 -34 -34 -65 -76z"/>
<path d="M6715 6021 c-26 -4 -41 -12 -43 -23 -2 -12 17 -24 80 -47 46 -18 92
-36 103 -40 33 -14 136 -39 209 -51 37 -6 75 -15 84 -20 9 -5 55 -14 102 -19
109 -13 289 -53 363 -81 35 -13 71 -20 90 -17 18 2 40 0 50 -5 19 -10 270 -67
327 -74 19 -3 60 -12 90 -20 30 -9 69 -17 85 -19 17 -1 53 -8 80 -15 93 -22
220 -12 193 16 -12 11 -536 145 -913 234 -99 23 -214 52 -255 65 -41 13 -124
33 -185 45 -60 12 -137 29 -170 37 -65 16 -224 43 -240 41 -5 0 -28 -4 -50 -7z"/>
<path d="M7581 5609 c-26 -28 -26 -44 -1 -69 21 -21 23 -22 84 -25 21 -1 41
-8 45 -14 5 -7 12 -11 17 -10 16 5 99 -13 111 -23 14 -11 63 14 63 32 0 19
-73 67 -121 79 -27 7 -62 19 -77 26 -15 8 -43 17 -63 20 -30 6 -40 3 -58 -16z"/>
<path d="M6280 4426 c-20 -20 -8 -34 48 -57 31 -12 66 -28 77 -35 25 -15 221
-81 261 -87 16 -2 47 -12 69 -22 22 -9 71 -23 109 -31 97 -19 256 -69 354
-111 45 -20 99 -37 120 -38 21 -1 46 -7 57 -12 32 -17 289 -101 331 -109 22
-4 62 -16 89 -27 28 -11 64 -23 80 -27 17 -5 57 -16 90 -25 75 -21 151 -28
173 -16 14 8 4 15 -51 40 -38 17 -72 31 -75 31 -3 0 -40 16 -82 35 -80 37
-355 145 -367 145 -13 0 -262 80 -348 112 -44 16 -93 33 -110 38 -16 4 -68 22
-115 40 -47 18 -95 34 -108 35 -12 2 -46 10 -75 19 -28 8 -77 22 -107 30 -30
8 -82 22 -115 31 -162 46 -284 62 -305 41z"/>
<path d="M7416 3778 c-9 -12 -16 -30 -16 -39 0 -25 34 -50 66 -49 16 1 62 -6
102 -15 57 -13 76 -14 88 -5 31 27 2 62 -67 80 -23 6 -58 20 -78 31 -47 25
-76 24 -95 -3z"/>
</g>
</svg>
